<mxfile host="65bd71144e">
    <diagram id="yHoicOXhX4pi03d6xRIq" name="Page-1">
        <mxGraphModel dx="3240" dy="1758" grid="0" gridSize="10" guides="1" tooltips="1" connect="1" arrows="1" fold="1" page="0" pageScale="1" pageWidth="850" pageHeight="1100" math="0" shadow="0">
            <root>
                <mxCell id="0"/>
                <mxCell id="1" parent="0"/>
                <mxCell id="63" value="Nestjs Modules" style="verticalAlign=top;align=center;spacingTop=20;spacingLeft=2;spacingRight=12;shape=cube;size=10;direction=south;fontStyle=1;rounded=0;shadow=0;glass=0;dashed=1;sketch=0;strokeColor=default;strokeWidth=1;fontSize=20;fontColor=#FFFFFF;fillColor=none;horizontal=1;labelPosition=center;verticalLabelPosition=middle;html=1;" vertex="1" parent="1">
                    <mxGeometry x="-627" y="-181" width="367" height="179" as="geometry"/>
                </mxCell>
                <mxCell id="2" value="AppModule" style="shape=module;align=left;spacingLeft=20;align=center;verticalAlign=top;fillColor=#FFFFFF;strokeColor=#000000;fontColor=#000000;" vertex="1" parent="1">
                    <mxGeometry x="-504" y="108" width="160" height="80" as="geometry"/>
                </mxCell>
                <mxCell id="48" style="edgeStyle=none;html=1;fontColor=#000000;" edge="1" parent="1" source="4" target="2">
                    <mxGeometry relative="1" as="geometry"/>
                </mxCell>
                <mxCell id="4" value="ConfigModule" style="shape=module;align=left;spacingLeft=20;align=center;verticalAlign=top;" vertex="1" parent="1">
                    <mxGeometry x="-418" y="-98" width="108" height="54" as="geometry"/>
                </mxCell>
                <mxCell id="47" style="edgeStyle=none;html=1;entryX=0.568;entryY=-0.023;entryDx=0;entryDy=0;fontColor=#000000;entryPerimeter=0;" edge="1" parent="1" source="5" target="2">
                    <mxGeometry relative="1" as="geometry"/>
                </mxCell>
                <mxCell id="5" value="MongooseModule" style="shape=module;align=left;spacingLeft=20;align=center;verticalAlign=top;" vertex="1" parent="1">
                    <mxGeometry x="-587" y="-98" width="141" height="54" as="geometry"/>
                </mxCell>
                <mxCell id="49" style="edgeStyle=none;html=1;entryX=0.5;entryY=1;entryDx=0;entryDy=0;fontColor=#000000;" edge="1" parent="1" source="3" target="2">
                    <mxGeometry relative="1" as="geometry"/>
                </mxCell>
                <mxCell id="50" style="edgeStyle=none;html=1;entryX=0.5;entryY=1;entryDx=0;entryDy=0;fontColor=#000000;" edge="1" parent="1" source="7" target="2">
                    <mxGeometry relative="1" as="geometry"/>
                </mxCell>
                <mxCell id="51" style="edgeStyle=none;html=1;entryX=0.5;entryY=1;entryDx=0;entryDy=0;fontColor=#000000;" edge="1" parent="1" source="8" target="2">
                    <mxGeometry relative="1" as="geometry"/>
                </mxCell>
                <mxCell id="52" style="edgeStyle=none;html=1;entryX=0.5;entryY=1;entryDx=0;entryDy=0;fontColor=#000000;" edge="1" parent="1" source="9" target="2">
                    <mxGeometry relative="1" as="geometry"/>
                </mxCell>
                <mxCell id="53" style="edgeStyle=none;html=1;entryX=0.5;entryY=1;entryDx=0;entryDy=0;fontColor=#000000;" edge="1" parent="1" source="10" target="2">
                    <mxGeometry relative="1" as="geometry"/>
                </mxCell>
                <mxCell id="54" style="edgeStyle=none;html=1;fontColor=#000000;entryX=0.5;entryY=1;entryDx=0;entryDy=0;" edge="1" parent="1" source="11" target="2">
                    <mxGeometry relative="1" as="geometry"/>
                </mxCell>
                <mxCell id="55" style="edgeStyle=none;html=1;entryX=0.5;entryY=1;entryDx=0;entryDy=0;fontColor=#000000;" edge="1" parent="1" source="12" target="2">
                    <mxGeometry relative="1" as="geometry"/>
                </mxCell>
                <mxCell id="56" style="edgeStyle=none;html=1;entryX=0.5;entryY=1;entryDx=0;entryDy=0;fontColor=#000000;" edge="1" parent="1" source="13" target="2">
                    <mxGeometry relative="1" as="geometry"/>
                </mxCell>
                <mxCell id="57" style="edgeStyle=none;html=1;entryX=0.5;entryY=1;entryDx=0;entryDy=0;fontColor=#000000;" edge="1" parent="1" source="14" target="2">
                    <mxGeometry relative="1" as="geometry"/>
                </mxCell>
                <mxCell id="58" style="edgeStyle=none;html=1;entryX=0.5;entryY=1;entryDx=0;entryDy=0;fontColor=#000000;" edge="1" parent="1" source="15" target="2">
                    <mxGeometry relative="1" as="geometry"/>
                </mxCell>
                <mxCell id="3" value="MailModule" style="shape=module;align=left;spacingLeft=20;align=center;verticalAlign=top;" vertex="1" parent="1">
                    <mxGeometry x="-1267" y="387" width="108" height="54" as="geometry"/>
                </mxCell>
                <mxCell id="7" value="UsersModule" style="shape=module;align=left;spacingLeft=20;align=center;verticalAlign=top;" vertex="1" parent="1">
                    <mxGeometry x="-1095" y="389" width="141" height="54" as="geometry"/>
                </mxCell>
                <mxCell id="8" value="AuthModule" style="shape=module;align=left;spacingLeft=20;align=center;verticalAlign=top;" vertex="1" parent="1">
                    <mxGeometry x="-908" y="389" width="141" height="54" as="geometry"/>
                </mxCell>
                <mxCell id="9" value="TransactionalTokensModule" style="shape=module;align=left;spacingLeft=20;align=center;verticalAlign=top;" vertex="1" parent="1">
                    <mxGeometry x="-725" y="387" width="201" height="54" as="geometry"/>
                </mxCell>
                <mxCell id="10" value="CategoriesModule" style="shape=module;align=left;spacingLeft=20;align=center;verticalAlign=top;" vertex="1" parent="1">
                    <mxGeometry x="-485" y="387" width="141" height="54" as="geometry"/>
                </mxCell>
                <mxCell id="11" value="AccountsModule" style="shape=module;align=left;spacingLeft=20;align=center;verticalAlign=top;" vertex="1" parent="1">
                    <mxGeometry x="-309" y="387" width="141" height="54" as="geometry"/>
                </mxCell>
                <mxCell id="12" value="TransactionsModule" style="shape=module;align=left;spacingLeft=20;align=center;verticalAlign=top;" vertex="1" parent="1">
                    <mxGeometry x="-137" y="387" width="141" height="54" as="geometry"/>
                </mxCell>
                <mxCell id="13" value="TransfersModule" style="shape=module;align=left;spacingLeft=20;align=center;verticalAlign=top;" vertex="1" parent="1">
                    <mxGeometry x="36" y="387" width="141" height="54" as="geometry"/>
                </mxCell>
                <mxCell id="14" value="AvatarsModule" style="shape=module;align=left;spacingLeft=20;align=center;verticalAlign=top;" vertex="1" parent="1">
                    <mxGeometry x="217" y="389" width="141" height="54" as="geometry"/>
                </mxCell>
                <mxCell id="15" value="CloudinaryModule" style="shape=module;align=left;spacingLeft=20;align=center;verticalAlign=top;" vertex="1" parent="1">
                    <mxGeometry x="405" y="387" width="141" height="54" as="geometry"/>
                </mxCell>
                <mxCell id="67" value="My Custom Modules" style="verticalAlign=bottom;align=center;spacingTop=20;spacingLeft=2;spacingRight=12;shape=cube;size=10;direction=south;fontStyle=1;rounded=0;shadow=0;glass=0;dashed=1;sketch=0;strokeColor=default;strokeWidth=1;fontSize=20;fontColor=#FFFFFF;fillColor=none;horizontal=1;labelPosition=center;verticalLabelPosition=middle;html=1;spacingBottom=10;" vertex="1" parent="1">
                    <mxGeometry x="-1319" y="324.5" width="1910" height="192.5" as="geometry"/>
                </mxCell>
            </root>
        </mxGraphModel>
    </diagram>
</mxfile>
